<?xml version="1.0" encoding="utf-8"?>
<!-- Generator: Adobe Illustrator 22.1.0, SVG Export Plug-In . SVG Version: 6.00 Build 0)  -->
<svg version="1.1" id="Layer_1" xmlns="http://www.w3.org/2000/svg" xmlns:xlink="http://www.w3.org/1999/xlink" x="0px" y="0px"
	 viewBox="0 0 84 64" style="enable-background:new 0 0 84 64;" xml:space="preserve">
<style type="text/css">
	.st0{fill:none;stroke:#CE1B0E;stroke-miterlimit:10;}
	.st1{fill:#CE1B0E;}
</style>
<g>
	<path class="st0" d="M6,2h72c2.2,0,4,1.8,4,4v52c0,2.2-1.8,4-4,4H6c-2.2,0-4-1.8-4-4V6C2,3.8,3.8,2,6,2z"/>
</g>
<g>
	<g>
		<path class="st1" d="M42.9,16.5c-2,0-3.7,1.7-3.7,3.7s1.7,3.7,3.7,3.7c2,0,3.6-1.7,3.6-3.7S44.9,16.5,42.9,16.5z"/>
	</g>
</g>
<g>
	<g>
		<path class="st1" d="M47,23.9c-1,1.1-2.4,1.8-4,1.8c-1.6,0-3.1-0.7-4.1-1.8c-0.9,1-1.4,2.2-1.4,3.6v0.9c0,0.5,0.4,0.9,0.9,0.9h9.2
			c0.5,0,0.9-0.4,0.9-0.9v-0.9C48.4,26.1,47.8,24.8,47,23.9z"/>
	</g>
</g>
<g>
	<g>
		<path class="st1" d="M35.3,44.4l-4.6-9.3c-0.4-0.9-1.5-1.3-2.4-0.8L27,34.9c-0.5,0.2-0.6,0.8-0.4,1.2L32,47
			c0.2,0.5,0.8,0.6,1.2,0.4l1.2-0.6C35.3,46.4,35.7,45.3,35.3,44.4z"/>
	</g>
</g>
<g>
	<g>
		<path class="st1" d="M56.8,31.5C56,31,55,31.1,54.4,31.7l-5,6.1c-0.3,0.4-1,0.6-1.3,0.6h-4.2c-0.5,0-0.9-0.4-0.9-0.9
			c0-0.5,0.4-0.9,0.9-0.9c1.2,0,2.6,0,3.6,0c1,0,1.8-0.8,1.8-1.8c0-1-0.8-1.8-1.8-1.8c-4.3,0-0.2,0-4.8,0c-0.5,0-0.7-0.3-1-0.6
			c-1.4-1.3-3.5-1.9-5.7-1.4c-1.2,0.3-2,0.8-2.8,1.4l0,0l-1.3,1.2L37,43.9h1.5h8.9c1.7,0,3.4-0.8,4.4-2.2l5.3-7.6
			C57.8,33.3,57.6,32.1,56.8,31.5z"/>
	</g>
</g>
</svg>
