<?xml version="1.0" encoding="UTF-8"?>
<svg width="80px" height="60px" viewBox="0 0 80 60" version="1.1" xmlns="http://www.w3.org/2000/svg" xmlns:xlink="http://www.w3.org/1999/xlink">
    <!-- Generator: Sketch 51.2 (57519) - http://www.bohemiancoding.com/sketch -->
    <title>Join</title>
    <desc>Created with Sketch.</desc>
    <defs></defs>
    <g id="Style-Guide" stroke="none" stroke-width="1" fill="none" fill-rule="evenodd">
        <g id="iCons" transform="translate(-40.000000, -636.000000)" stroke="#CE1B0E">
            <g id="Join" transform="translate(40.000000, 636.000000)">
                <rect id="Rectangle" x="0.5" y="0.5" width="79" height="59" rx="4"></rect>
                <g id="Group" opacity="0.8" transform="translate(24.083214, 13.000000)" fill-rule="nonzero">
                    <g id="web-link" transform="translate(0.916786, 0.000000)">
                        <path d="M12.45165,26.9752697 L10.73125,28.6837697 C9.239925,30.1619197 6.81445,30.1631947 5.323975,28.6837697 C4.607425,27.9727447 4.213875,27.0283947 4.213875,26.0245447 C4.213875,25.0206947 4.60785,24.0759197 5.32355,23.3648947 L11.65605,17.0821197 C12.96845,15.7807697 15.437275,13.8644447 17.236725,15.6490197 C18.0625,16.4692697 19.39615,16.4637447 20.215975,15.6383947 C21.036225,14.8130447 21.031125,13.4789697 20.20535,12.6595697 C17.146625,9.6242197 12.6259,10.1852197 8.6887,14.0918197 L2.355775,20.3750197 C0.8364,21.8833447 0,23.8893447 0,26.0245447 C0,28.1597447 0.8364,30.1653197 2.3562,31.6736447 C3.919775,33.2248947 5.97295,34.0000947 8.026975,34.0000947 C10.081425,34.0000947 12.13545,33.2248947 13.699875,31.6727947 L15.42155,29.9638697 C16.2469,29.1444697 16.251575,27.8108197 15.431325,26.9850447 C14.61235,26.1601197 13.277425,26.1554447 12.45165,26.9752697 Z M31.64295,2.5687947 C28.3577,-0.690955297 23.7643,-0.867755297 20.723,2.1497447 L18.57845,4.2785697 C17.752675,5.0983947 17.747575,6.4316197 18.567825,7.2573947 C19.388075,8.0831697 20.721725,8.0878447 21.5475,7.2680197 L23.6912,5.1404697 C25.266675,3.5760447 27.329625,4.2245947 28.675175,5.5595197 C29.392575,6.2705447 29.78655,7.2153197 29.78655,8.2191697 C29.78655,9.2234447 29.39215,10.1682197 28.676025,10.8792447 L21.9198,17.5814947 C18.830475,20.6465947 17.381225,19.2079697 16.76285,18.5942697 C15.937075,17.7744447 14.60385,17.7795447 13.7836,18.6048947 C12.96335,19.4302447 12.96845,20.7643197 13.794225,21.5837197 C15.21245,22.9913197 16.831275,23.6891697 18.5283,23.6891697 C20.606125,23.6891697 22.800825,22.6428197 24.887575,20.5709447 L31.6438,13.8686947 C33.16275,12.3603697 34,10.3539447 34,8.2187447 C34,6.0843947 33.16275,4.0779697 31.64295,2.5687947 Z" id="Shape"></path>
                    </g>
                </g>
            </g>
        </g>
    </g>
</svg>