<?xml version="1.0" encoding="utf-8"?>
<!-- Generator: Adobe Illustrator 22.1.0, SVG Export Plug-In . SVG Version: 6.00 Build 0)  -->
<svg version="1.1" id="Layer_1" xmlns="http://www.w3.org/2000/svg" xmlns:xlink="http://www.w3.org/1999/xlink" x="0px" y="0px"
	 viewBox="0 0 84 64" style="enable-background:new 0 0 84 64;" xml:space="preserve">
<style type="text/css">
	.st0{fill:none;stroke:#CE1B0E;stroke-miterlimit:10;}
	.st1{fill:#CE1B0E;}
	.st2{fill:#FFFFFF;}
	.st3{font-family:'Arial-BoldMT';}
	.st4{font-size:10.955px;}
	.st5{fill:#CE1C0D;}
</style>
<g>
	<g>
		<path class="st0" d="M6,2h72c2.2,0,4,1.8,4,4v52c0,2.2-1.8,4-4,4H6c-2.2,0-4-1.8-4-4V6C2,3.8,3.8,2,6,2z"/>
	</g>
	<g>
		<path class="st0" d="M57.6,49.1c0,0,0,1-1,1H46v-8.9c0,0,0.1-1.4-1.3-1.4h-4.4c-1.7,0-1.6,1.4-1.6,1.4V50H28.1
			C27,50,27,48.7,27,48.7V32.5l14.8-13.2l15.7,13.2C57.6,32.5,57.6,49.1,57.6,49.1"/>
		<path class="st1" d="M63.5,31.2c0,0-1.3,2.5-4.2,0L41.9,16.6L25.6,31.2c-3.4,2.4-4.6,0-4.6,0l21-18.8L63.5,31.2z"/>
	</g>
	<g>
		<rect x="27" y="18" class="st1" width="4" height="8"/>
	</g>
	<path class="st2" d="M55,48.5C55,55.4,49.4,59,42.5,59S30,55.4,30,48.5S35.6,36,42.5,36S55,41.6,55,48.5z"/>
	<g>
		<text transform="matrix(1 0 0 1 33.9481 39.1046)" class="st1 st3 st4">5/1</text>
	</g>
	<g>
		<path class="st5" d="M37.8,50.6L37,48.3h-3l-0.8,2.2h-0.7l2.7-6.9h0.7l2.7,6.9L37.8,50.6z M35.4,44.4l-1.3,3.3h2.5L35.4,44.4z"/>
		<path class="st5" d="M44.3,50.4l-0.7,0.2l-2.2-3.1h-0.9v3h-0.7v-6.9h1.8c1.3,0,2.2,0.7,2.2,1.9c0,1.1-0.7,1.7-1.6,1.9L44.3,50.4z
			 M41.6,44.2h-1v2.6h0.9c1,0,1.7-0.5,1.7-1.3C43.1,44.7,42.6,44.2,41.6,44.2z"/>
		<path class="st5" d="M52.2,50.5l-0.4-5.9l-2.4,5.9h-0.5l-2.4-5.9L46,50.5h-0.6l0.5-6.9h0.8l2.4,6l2.4-6h0.8l0.5,6.9H52.2z"/>
	</g>
</g>
</svg>
