<?xml version="1.0" encoding="utf-8"?>
<!-- Generator: Adobe Illustrator 22.1.0, SVG Export Plug-In . SVG Version: 6.00 Build 0)  -->
<svg version="1.1" id="Layer_1" xmlns="http://www.w3.org/2000/svg" xmlns:xlink="http://www.w3.org/1999/xlink" x="0px" y="0px"
	 viewBox="0 0 84 64" style="enable-background:new 0 0 84 64;" xml:space="preserve">
<style type="text/css">
	.st0{fill:none;stroke:#CE1B0E;stroke-miterlimit:10;}
	.st1{fill:#CE1B0E;}
	.st2{fill:#FFFFFF;}
	.st3{font-family:'Arial-BoldMT';}
	.st4{font-size:10.955px;}
	.st5{font-family:'MyriadPro-Semibold';}
	.st6{font-size:8px;}
</style>
<g>
	<g>
		<path class="st0" d="M6,2h72c2.2,0,4,1.8,4,4v52c0,2.2-1.8,4-4,4H6c-2.2,0-4-1.8-4-4V6C2,3.8,3.8,2,6,2z"/>
	</g>
	<g>
		<path class="st0" d="M57.6,49.1c0,0,0,1-1,1H46v-8.9c0,0,0.1-1.4-1.3-1.4h-4.4c-1.7,0-1.6,1.4-1.6,1.4V50H28.1
			C27,50,27,48.7,27,48.7V32.5l14.8-13.2l15.7,13.2C57.6,32.5,57.6,49.1,57.6,49.1"/>
		<path class="st1" d="M63.5,31.2c0,0-1.3,2.5-4.2,0L41.9,16.6L25.6,31.2c-3.4,2.4-4.6,0-4.6,0l21-18.8L63.5,31.2z"/>
	</g>
	<g>
		<rect x="27" y="18" class="st1" width="4" height="8"/>
	</g>
	<path class="st2" d="M55,48.5C55,55.4,49.4,59,42.5,59S30,55.4,30,48.5S35.6,36,42.5,36S55,41.6,55,48.5z"/>
	<g>
		<text transform="matrix(1 0 0 1 33.9481 39.1046)" class="st1 st3 st4">30</text>
	</g>
	<g>
		<g>
			<path class="st1" d="M32.2,43.2v3h2.7l0.1,0.7h-2.8v3.8h-0.8v-8.3h4.1v0.7H32.2z"/>
			<path class="st1" d="M36.8,43.7c-0.3,0-0.6-0.3-0.6-0.6c0-0.3,0.3-0.6,0.6-0.6c0.3,0,0.6,0.3,0.6,0.6
				C37.4,43.4,37.1,43.7,36.8,43.7z M36.4,50.7v-5.7h0.8v5.7H36.4z"/>
			<path class="st1" d="M42.3,50.8l-1.6-2.4l-1.5,2.3h-0.9l2-2.9l-1.9-2.7l0.8-0.2l1.5,2.2l1.4-2.1H43l-1.9,2.7l2,2.9L42.3,50.8z"/>
			<path class="st1" d="M48.2,47.9h-3.9c0,1.4,0.7,2.2,1.8,2.2c0.8,0,1.4-0.3,2-0.8l0.1,0.7c-0.6,0.5-1.3,0.8-2.2,0.8
				c-1.5,0-2.6-1-2.6-3c0-1.8,1.1-3,2.4-3c1.5,0,2.3,1.3,2.3,2.8C48.2,47.8,48.2,47.9,48.2,47.9z M46,45.6c-0.9,0-1.5,0.7-1.6,1.8
				h3.1C47.3,46.3,46.9,45.6,46,45.6z"/>
			<path class="st1" d="M53.3,50.7l-0.1-0.8c-0.4,0.5-1,0.9-1.8,0.9c-1.2,0-2.3-0.9-2.3-2.8c0-2.1,1.2-3.1,2.6-3.1
				c0.6,0,1.1,0.1,1.5,0.3v-3l0.8-0.1v8.6H53.3z M53.1,46c-0.4-0.2-0.9-0.3-1.5-0.3c-1,0-1.8,0.8-1.8,2.4c0,1.4,0.7,2.1,1.6,2.1
				c0.7,0,1.2-0.4,1.7-1V46z"/>
		</g>
	</g>
</g>
<text transform="matrix(1 0 0 1 46.875 39.125)" class="st1 st5 st6">yr</text>
</svg>
