<?xml version="1.0" encoding="utf-8"?>
<!-- Generator: Adobe Illustrator 22.1.0, SVG Export Plug-In . SVG Version: 6.00 Build 0)  -->
<svg version="1.1" id="Layer_1" xmlns="http://www.w3.org/2000/svg" xmlns:xlink="http://www.w3.org/1999/xlink" x="0px" y="0px"
	 viewBox="0 0 84 64" style="enable-background:new 0 0 84 64;" xml:space="preserve">
<style type="text/css">
	.st0{fill:#CE1B0E;}
	.st1{fill:none;stroke:#FFFFFF;stroke-miterlimit:10;}
	.st2{fill:#FFFFFF;}
	.st3{fill:#CE1C0D;}
	.st4{font-family:'Arial-BoldMT';}
	.st5{font-size:10.955px;}
	.st6{font-family:'MyriadPro-Semibold';}
	.st7{font-size:8px;}
</style>
<g>
	<g>
		<g>
			<path id="SVGID_1_" class="st0" d="M6.1,1.9l72,0.1c2.2,0,4,1.8,4,4L82,58c0,2.2-1.8,4-4,4L6,61.9c-2.2,0-4-1.8-4-4v-52
				C2.1,3.7,3.8,1.9,6.1,1.9z"/>
		</g>
	</g>
	<g>
		<path class="st1" d="M57.6,49.1c0,0,0,1-1,1H46v-8.9c0,0,0.1-1.4-1.3-1.4h-4.4c-1.7,0-1.6,1.4-1.6,1.4V50H28.1
			C27,50,27,48.7,27,48.7V32.5l14.8-13.2l15.7,13.2C57.6,32.5,57.6,49.1,57.6,49.1"/>
		<path class="st2" d="M63.5,31.2c0,0-1.3,2.5-4.2,0L41.9,16.6L25.6,31.2c-3.4,2.4-4.6,0-4.6,0l21-18.8L63.5,31.2z"/>
	</g>
	<g>
		<g>
			<polygon id="SVGID_3_" class="st2" points="26.9,17.6 31,17.6 31,22.6 26.9,26.2 			"/>
		</g>
	</g>
	<circle class="st3" cx="42.5" cy="48.5" r="12.5"/>
	<g>
		<text transform="matrix(1 0 0 1 31.9481 39.1046)" class="st2 st4 st5">15</text>
	</g>
	<text transform="matrix(1 0 0 1 44.875 39.125)" class="st2 st6 st7">yr</text>
	<g>
		<g>
			<path class="st2" d="M32.2,43.2v3h2.7l0.1,0.7h-2.8v3.8h-0.8v-8.3h4.1v0.7L32.2,43.2L32.2,43.2z"/>
			<path class="st2" d="M36.8,43.7c-0.3,0-0.6-0.3-0.6-0.6s0.3-0.6,0.6-0.6s0.6,0.3,0.6,0.6C37.4,43.4,37.1,43.7,36.8,43.7z
				 M36.4,50.7V45h0.8v5.7H36.4z"/>
			<path class="st2" d="M42.3,50.8l-1.6-2.4l-1.5,2.3h-0.9l2-2.9l-1.9-2.7l0.8-0.2l1.5,2.2l1.4-2.1H43l-1.9,2.7l2,2.9L42.3,50.8z"/>
			<path class="st2" d="M48.2,47.9h-3.9c0,1.4,0.7,2.2,1.8,2.2c0.8,0,1.4-0.3,2-0.8l0.1,0.7c-0.6,0.5-1.3,0.8-2.2,0.8
				c-1.5,0-2.6-1-2.6-3c0-1.8,1.1-3,2.4-3c1.5,0,2.3,1.3,2.3,2.8C48.2,47.8,48.2,47.9,48.2,47.9z M46,45.6c-0.9,0-1.5,0.7-1.6,1.8
				h3.1C47.3,46.3,46.9,45.6,46,45.6z"/>
			<path class="st2" d="M53.3,50.7l-0.1-0.8c-0.4,0.5-1,0.9-1.8,0.9c-1.2,0-2.3-0.9-2.3-2.8c0-2.1,1.2-3.1,2.6-3.1
				c0.6,0,1.1,0.1,1.5,0.3v-3l0.8-0.1v8.6C54,50.7,53.3,50.7,53.3,50.7z M53.1,46c-0.4-0.2-0.9-0.3-1.5-0.3c-1,0-1.8,0.8-1.8,2.4
				c0,1.4,0.7,2.1,1.6,2.1c0.7,0,1.2-0.4,1.7-1V46z"/>
		</g>
	</g>
</g>
</svg>
