<?xml version="1.0" encoding="utf-8"?>
<!-- Generator: Adobe Illustrator 22.1.0, SVG Export Plug-In . SVG Version: 6.00 Build 0)  -->
<svg version="1.1" id="Layer_1" xmlns="http://www.w3.org/2000/svg" xmlns:xlink="http://www.w3.org/1999/xlink" x="0px" y="0px"
	 viewBox="0 0 84 64" style="enable-background:new 0 0 84 64;" xml:space="preserve">
<style type="text/css">
	.st0{fill:none;stroke:#FFFFFF;stroke-miterlimit:10;}
	.st1{fill:#FFFFFF;}
	.st2{fill:#CE1C0D;}
	.st3{font-family:'Arial-BoldMT';}
	.st4{font-size:10.955px;}
	.st5{font-family:'Whitney-Semibold';}
	.st6{font-size:10px;}
</style>
<g>
	<g>
		<defs>
			<path id="SVGID_1_" d="M6.1,1.9l72,0.1c2.2,0,4,1.8,4,4l-0.1,52c0,2.2-1.8,4-4,4l-72-0.1c-2.2,0-4-1.8-4-4L2,5.9
				C2.1,3.7,3.8,1.9,6.1,1.9z"/>
		</defs>
		<use xlink:href="#SVGID_1_"  style="overflow:visible;fill-rule:evenodd;clip-rule:evenodd;fill:#CE1B0E;"/>
		<clipPath id="SVGID_2_">
			<use xlink:href="#SVGID_1_"  style="overflow:visible;"/>
		</clipPath>
	</g>
	<g>
		<path class="st0" d="M57.6,49.1c0,0,0,1-1,1H46v-8.9c0,0,0.1-1.4-1.3-1.4h-4.4c-1.7,0-1.6,1.4-1.6,1.4V50H28.1
			C27,50,27,48.7,27,48.7V32.5l14.8-13.2l15.7,13.2C57.6,32.5,57.6,49.1,57.6,49.1"/>
		<path class="st1" d="M63.5,31.2c0,0-1.3,2.5-4.2,0L41.9,16.6L25.6,31.2c-3.4,2.4-4.6,0-4.6,0l21-18.8L63.5,31.2z"/>
	</g>
	<g>
		<defs>
			<polygon id="SVGID_3_" points="26.9,17.6 31,17.6 31,22.6 26.9,26.2 			"/>
		</defs>
		<use xlink:href="#SVGID_3_"  style="overflow:visible;fill-rule:evenodd;clip-rule:evenodd;fill:#FFFFFF;"/>
		<clipPath id="SVGID_4_">
			<use xlink:href="#SVGID_3_"  style="overflow:visible;"/>
		</clipPath>
	</g>
	<circle class="st2" cx="42.5" cy="48.5" r="12.5"/>
	<g>
		<text transform="matrix(1 0 0 1 33.9481 39.1046)" class="st1 st3 st4">1/1</text>
	</g>
	<text transform="matrix(1 0 0 1 32 50.5)" class="st1 st5 st6">ARM</text>
</g>
</svg>
