<?xml version="1.0" encoding="utf-8"?>
<!-- Generator: Adobe Illustrator 22.1.0, SVG Export Plug-In . SVG Version: 6.00 Build 0)  -->
<svg version="1.1" id="Layer_1" xmlns="http://www.w3.org/2000/svg" xmlns:xlink="http://www.w3.org/1999/xlink" x="0px" y="0px"
	 viewBox="0 0 84 64" style="enable-background:new 0 0 84 64;" xml:space="preserve">
<style type="text/css">
	.st0{fill:none;stroke:#CE1B0E;stroke-miterlimit:10;}
	.st1{fill:#CE1B0E;}
</style>
<g>
	<path class="st0" d="M6,2h72c2.2,0,4,1.8,4,4v52c0,2.2-1.8,4-4,4H6c-2.2,0-4-1.8-4-4V6C2,3.8,3.8,2,6,2z"/>
</g>
<g>
	<g>
		<path class="st1" d="M30.7,33.5c-1.8,0-3.3,1.5-3.3,3.3c0,1.8,1.5,3.3,3.3,3.3c1.8,0,3.3-1.5,3.3-3.3C34,35,32.5,33.5,30.7,33.5z
			 M30.7,38.8c-1.1,0-2-0.9-2-2c0-1.1,0.9-2,2-2s2,0.9,2,2C32.7,37.9,31.8,38.8,30.7,38.8z"/>
	</g>
</g>
<g>
	<g>
		<path class="st1" d="M61.2,33.6v-4c0-0.3-0.2-0.5-0.5-0.6L57,27.7c-1.4-2.4-3.4-4.7-7.7-5.4c0,0,0,0,0,0
			c-7.9-1.1-13.9,0.7-17.7,5.3c-2.9,0-5.8,0.6-7.5,1.7c-0.9,0.6-1.4,1.6-1.5,2.6l-0.1,1.7c-0.4,0-0.7,0.3-0.7,0.7v2.7
			c0,0.4,0.3,0.7,0.7,0.7h2.7c0.4,0,0.7-0.3,0.7-0.7c0,0,0,0,0,0c0-2.6,2.1-4.6,4.7-4.6c2.6,0,4.7,2.1,4.7,4.7
			c0,0.4,0.3,0.7,0.7,0.7h12c0.4,0,0.7-0.3,0.7-0.7c0,0,0,0,0,0c0-2.6,2.1-4.6,4.7-4.6c2.6,0,4.7,2.1,4.7,4.7c0,0.4,0.3,0.7,0.7,0.7
			h2.7c0.4,0,0.7-0.3,0.7-0.7v-2.7C61.9,33.9,61.6,33.6,61.2,33.6z M43.2,27.3c0,0.2-0.1,0.3-0.3,0.3h-8.7c-0.3,0-0.4-0.4-0.2-0.6
			c2.3-2.1,5.3-3.3,8.9-3.6c0.2,0,0.4,0.1,0.4,0.3V27.3z M51.2,27.3c0,0.2-0.2,0.3-0.3,0.3h-6c-0.2,0-0.3-0.1-0.3-0.3v-3.6
			c0-0.2,0.1-0.3,0.3-0.3c1.3,0,2.7,0.1,4.2,0.3c0.7,0.1,1.3,0.3,1.9,0.5c0.1,0,0.2,0.2,0.2,0.3L51.2,27.3z M54.7,27.6h-1.8
			c-0.2,0-0.3-0.2-0.3-0.3l0-1.8c0-0.3,0.3-0.4,0.5-0.3c0.7,0.5,1.3,1.2,1.9,1.9C55.1,27.3,55,27.6,54.7,27.6z"/>
	</g>
</g>
<g>
	<g>
		<path class="st1" d="M53.3,33.5c-1.8,0-3.3,1.5-3.3,3.3c0,1.8,1.5,3.3,3.3,3.3c1.8,0,3.3-1.5,3.3-3.3C56.7,35,55.2,33.5,53.3,33.5
			z M53.3,38.8c-1.1,0-2-0.9-2-2c0-1.1,0.9-2,2-2c1.1,0,2,0.9,2,2C55.3,37.9,54.4,38.8,53.3,38.8z"/>
	</g>
</g>
</svg>
