<?xml version="1.0" encoding="utf-8"?>
<!-- Generator: Adobe Illustrator 22.1.0, SVG Export Plug-In . SVG Version: 6.00 Build 0)  -->
<svg version="1.1" id="Layer_1" xmlns="http://www.w3.org/2000/svg" xmlns:xlink="http://www.w3.org/1999/xlink" x="0px" y="0px"
	 viewBox="0 0 84 64" style="enable-background:new 0 0 84 64;" xml:space="preserve">
<style type="text/css">
	.st0{fill:none;stroke:#CE1B0E;stroke-miterlimit:10;}
</style>
<g>
	<path class="st0" d="M6,2h72c2.2,0,4,1.8,4,4v52c0,2.2-1.8,4-4,4H6c-2.2,0-4-1.8-4-4V6C2,3.8,3.8,2,6,2z"/>
</g>
<path class="st0" d="M60.2,21.5v1.2c0,0.3-0.3,0.6-0.6,0.6h-1.8v0.9c0,0.5-0.4,0.9-0.9,0.9H27.1c-0.5,0-0.9-0.4-0.9-0.9v-0.9h-1.8
	c-0.3,0-0.6-0.3-0.6-0.6v-1.2c0-0.2,0.1-0.5,0.4-0.6l17.6-6.7c0.1-0.1,0.3-0.1,0.5,0l17.6,6.7C60.1,21,60.2,21.2,60.2,21.5z
	 M58.4,44.5H25.6c-1,0-1.8,0.8-1.8,1.8v1.2c0,0.3,0.3,0.6,0.6,0.6h35.2c0.3,0,0.6-0.3,0.6-0.6v-1.2C60.2,45.4,59.4,44.5,58.4,44.5z
	 M29.9,26.3v14.6h-2.7c-0.5,0-0.9,0.4-0.9,0.9v1.5h31.6v-1.5c0-0.5-0.4-0.9-0.9-0.9h-2.7V26.3h-4.9v14.6h-4.9V26.3h-4.9v14.6h-4.9
	V26.3H29.9z"/>
</svg>
