<?xml version="1.0" encoding="utf-8"?>
<!-- Generator: Adobe Illustrator 22.1.0, SVG Export Plug-In . SVG Version: 6.00 Build 0)  -->
<svg version="1.1" id="Layer_1" xmlns="http://www.w3.org/2000/svg" xmlns:xlink="http://www.w3.org/1999/xlink" x="0px" y="0px"
	 viewBox="0 0 84 64" style="enable-background:new 0 0 84 64;" xml:space="preserve">
<style type="text/css">
	.st0{fill:none;stroke:#CE1B0E;stroke-miterlimit:10;}
	.st1{fill:#CE1B0E;}
</style>
<g>
	<path class="st0" d="M6,2h72c2.2,0,4,1.8,4,4v52c0,2.2-1.8,4-4,4H6c-2.2,0-4-1.8-4-4V6C2,3.8,3.8,2,6,2z"/>
</g>
<g>
	<g>
		<path class="st1" d="M60.9,17.2c-0.6-0.6-1.4-1-2.3-1H25.4c-0.9,0-1.7,0.3-2.3,1c-0.6,0.6-1,1.4-1,2.3v25.2c0,0.9,0.3,1.7,1,2.3
			c0.6,0.6,1.4,1,2.3,1h33.2c0.9,0,1.7-0.3,2.3-1c0.6-0.6,1-1.4,1-2.3V19.5C61.9,18.6,61.6,17.8,60.9,17.2z M59.2,44.7
			c0,0.2-0.1,0.3-0.2,0.5c-0.1,0.1-0.3,0.2-0.5,0.2H25.4c-0.2,0-0.3-0.1-0.5-0.2c-0.1-0.1-0.2-0.3-0.2-0.5V32.1h34.5L59.2,44.7
			L59.2,44.7z M59.2,24.2H24.8v-4.6c0-0.2,0.1-0.3,0.2-0.5c0.1-0.1,0.3-0.2,0.5-0.2h33.2c0.2,0,0.3,0.1,0.5,0.2
			c0.1,0.1,0.2,0.3,0.2,0.5L59.2,24.2L59.2,24.2z"/>
		<rect x="27.4" y="40.1" class="st1" width="5.3" height="2.7"/>
		<rect x="35.4" y="40.1" class="st1" width="8" height="2.7"/>
	</g>
</g>
</svg>
