<?xml version="1.0" encoding="utf-8"?>
<!-- Generator: Adobe Illustrator 22.1.0, SVG Export Plug-In . SVG Version: 6.00 Build 0)  -->
<svg version="1.1" id="Layer_1" xmlns="http://www.w3.org/2000/svg" xmlns:xlink="http://www.w3.org/1999/xlink" x="0px" y="0px"
	 viewBox="0 0 84 64" style="enable-background:new 0 0 84 64;" xml:space="preserve">
<style type="text/css">
	.st0{fill:none;stroke:#CE1B0E;stroke-miterlimit:10;}
	.st1{fill:#FFFFFF;}
	.st2{fill:#DA291C;}
</style>
<g>
	<path class="st0" d="M6,2h72c2.2,0,4,1.8,4,4v52c0,2.2-1.8,4-4,4H6c-2.2,0-4-1.8-4-4V6C2,3.8,3.8,2,6,2z"/>
</g>
<g id="Small_Scale_Mark">
	<path class="st1" d="M57.4,13.5c0,0-0.7-0.1-1.3-0.1H27.9c-0.6,0-1.2,0.1-1.2,0.1c-2.1,0.2-3.6,1.6-3.7,3.6c0,0-0.1,0.7-0.1,1.3
		v28.3c0,0.6,0.1,1.2,0.1,1.3c0.2,2.1,1.6,3.6,3.6,3.7c0,0,0.7,0.1,1.3,0.1h28.3c0.6,0,1.2-0.1,1.2-0.1C59.5,51.4,61,50,61,48
		c0,0,0.1-0.7,0.1-1.3V18.4c0-0.6-0.1-1.2-0.1-1.3C60.9,15,59.4,13.5,57.4,13.5z M38.3,14.4v18l-3.6,0.7l-0.4-18.8H38.3z M33.3,14.4
		L33,33.5l-3.3,0.7l-0.3-19.8H33.3z M23.9,18.4c0-0.5,0.1-0.9,0.1-0.9c0.1-1.6,1.2-2.8,2.9-2.9c0,0,0.5-0.1,0.9-0.1h0.3l-0.3,20
		l-3.9,0.8C23.9,35.2,23.9,18.4,23.9,18.4z M23.9,36.3h18l0.7,3.6l-18.8,0.3V36.3z M23.9,41.3L43,41.6l0.7,3.3l-19.8,0.3V41.3z
		 M27.9,50.6c-0.5,0-0.9-0.1-0.9-0.1c-1.6-0.1-2.8-1.2-2.9-2.9c0,0-0.1-0.5-0.1-0.9v-0.3l20,0.3l0.8,3.9H27.9z M45.8,50.6v-18
		l3.6-0.7l0.3,18.8L45.8,50.6L45.8,50.6z M50.8,50.6l0.3-19.1l3.3-0.7l0.3,19.7L50.8,50.6L50.8,50.6z M60.1,46.7
		c0,0.5-0.1,0.9-0.1,0.9c-0.1,1.6-1.2,2.8-2.9,2.9c0,0-0.5,0.1-0.9,0.1h-0.3l0.3-20l3.9-0.8V46.7z M60.1,28.8h-18l-0.7-3.6l18.8-0.3
		L60.1,28.8L60.1,28.8z M60.1,23.8L41,23.5l-0.7-3.3l19.8-0.3V23.8z M60.1,18.4v0.3l-20-0.3l-0.8-3.9h16.9c0.5,0,0.9,0.1,0.9,0.1
		c1.6,0.1,2.8,1.2,2.9,2.9C60.1,17.4,60.1,17.9,60.1,18.4z"/>
	<path class="st2" d="M61.9,17c-0.2-2.6-2.1-4.4-4.4-4.4c-0.1,0-0.7-0.1-1.3-0.1H27.9c-0.7,0-1.3,0.1-1.3,0.1
		c-2.6,0.2-4.4,2.1-4.4,4.4c0,0-0.1,0.7-0.1,1.3v28.3c0,0.7,0.1,1.3,0.1,1.3c0.2,2.6,2.1,4.4,4.4,4.4c0,0,0.7,0.1,1.3,0.1h28.3
		c0.7,0,1.3-0.1,1.3-0.1c2.6-0.2,4.4-2.1,4.4-4.4c0-0.1,0.1-0.7,0.1-1.3V18.4C62,17.7,61.9,17.1,61.9,17z M61.1,46.7
		c0,0.6-0.1,1.2-0.1,1.3c-0.1,2-1.6,3.4-3.7,3.6c0,0-0.6,0.1-1.2,0.1H27.9c-0.6,0-1.2-0.1-1.3-0.1c-2-0.1-3.4-1.6-3.6-3.7
		c0,0-0.1-0.6-0.1-1.3V18.3c0-0.6,0.1-1.2,0.1-1.3c0.1-2,1.6-3.4,3.7-3.6c0,0,0.6-0.1,1.2-0.1h28.3c0.6,0,1.2,0.1,1.3,0.1
		c2,0.1,3.4,1.6,3.6,3.7c0,0,0.1,0.6,0.1,1.3C61.1,18.4,61.1,46.7,61.1,46.7z M56.1,30.6l3.9-0.8v16.9c0,0.5-0.1,0.9-0.1,0.9
		c-0.1,1.6-1.2,2.8-2.9,2.9c0,0-0.5,0.1-0.9,0.1h-0.3L56.1,30.6z M51.1,31.5l-0.3,19.1h3.9l-0.3-19.7L51.1,31.5z M45.8,32.6v18h4
		l-0.3-18.8L45.8,32.6z M23.9,46.4v0.3c0,0.4,0.1,0.9,0.1,0.9c0.2,1.8,1.4,2.9,2.9,2.9c0,0,0.4,0.1,0.9,0.1h16.9L44,46.7L23.9,46.4z
		 M43,41.6l-19.1-0.3v3.9l19.7-0.3L43,41.6z M41.9,36.3h-18v4l18.8-0.4L41.9,36.3z M28.2,14.4h-0.3c-0.4,0-0.9,0.1-0.9,0.1
		c-1.8,0.2-2.9,1.4-2.9,2.9c0,0-0.1,0.4-0.1,0.9v16.9l3.9-0.8L28.2,14.4z M32.9,33.5l0.3-19.1h-3.9l0.3,19.7L32.9,33.5z M38.3,32.5
		v-18h-4l0.4,18.8L38.3,32.5z M60.1,18.7v-0.3c0-0.4-0.1-0.9-0.1-0.9c-0.2-1.8-1.4-2.9-2.9-2.9c0,0-0.4-0.1-0.9-0.1H39.3l0.8,3.9
		L60.1,18.7z M41,23.5l19.1,0.3v-3.9l-19.7,0.3L41,23.5z M42.1,28.8h18v-4l-18.8,0.3L42.1,28.8z"/>
</g>
</svg>
