<?xml version="1.0" encoding="utf-8"?>
<!-- Generator: Adobe Illustrator 22.1.0, SVG Export Plug-In . SVG Version: 6.00 Build 0)  -->
<svg version="1.1" id="Layer_1" xmlns="http://www.w3.org/2000/svg" xmlns:xlink="http://www.w3.org/1999/xlink" x="0px" y="0px"
	 viewBox="0 0 84 64" style="enable-background:new 0 0 84 64;" xml:space="preserve">
<style type="text/css">
	.st0{fill:#FFFFFF;}
</style>
<g>
	<defs>
		<path id="SVGID_1_" d="M6.1,1.9l72,0.1c2.2,0,4,1.8,4,4l-0.1,52c0,2.2-1.8,4-4,4l-72-0.1c-2.2,0-4-1.8-4-4L2,5.9
			C2.1,3.7,3.8,1.9,6.1,1.9z"/>
	</defs>
	<use xlink:href="#SVGID_1_"  style="overflow:visible;fill-rule:evenodd;clip-rule:evenodd;fill:#CE1B0E;"/>
	<clipPath id="SVGID_2_">
		<use xlink:href="#SVGID_1_"  style="overflow:visible;"/>
	</clipPath>
</g>
<g>
	<g>
		<g>
			<path class="st0" d="M31.4,28h1c0.4,0,0.7-0.4,0.7-0.8V26c0-0.4-0.3-0.8-0.7-0.8h-1c-0.4,0-0.7,0.4-0.7,0.8v1.2
				C30.7,27.6,31,28,31.4,28z"/>
			<path class="st0" d="M31.4,32.9h1c0.4,0,0.7-0.4,0.7-0.8v-1.2c0-0.4-0.3-0.8-0.7-0.8h-1c-0.4,0-0.7,0.4-0.7,0.8v1.2
				C30.7,32.5,31,32.9,31.4,32.9z"/>
			<path class="st0" d="M31.4,37.8h1c0.4,0,0.7-0.4,0.7-0.8v-1.2c0-0.4-0.3-0.8-0.7-0.8h-1c-0.4,0-0.7,0.4-0.7,0.8V37
				C30.7,37.4,31,37.8,31.4,37.8z"/>
			<path class="st0" d="M31.4,42.7h1c0.4,0,0.7-0.4,0.7-0.8v-1.2c0-0.4-0.3-0.8-0.7-0.8h-1c-0.4,0-0.7,0.4-0.7,0.8v1.2
				C30.7,42.3,31,42.7,31.4,42.7z"/>
			<path class="st0" d="M34.9,28h1c0.4,0,0.7-0.4,0.7-0.8V26c0-0.4-0.3-0.8-0.7-0.8h-1c-0.4,0-0.7,0.4-0.7,0.8v1.2
				C34.2,27.6,34.5,28,34.9,28z"/>
			<path class="st0" d="M34.9,32.9h1c0.4,0,0.7-0.4,0.7-0.8v-1.2c0-0.4-0.3-0.8-0.7-0.8h-1c-0.4,0-0.7,0.4-0.7,0.8v1.2
				C34.2,32.5,34.5,32.9,34.9,32.9z"/>
			<path class="st0" d="M34.9,37.8h1c0.4,0,0.7-0.4,0.7-0.8v-1.2c0-0.4-0.3-0.8-0.7-0.8h-1c-0.4,0-0.7,0.4-0.7,0.8V37
				C34.2,37.4,34.5,37.8,34.9,37.8z"/>
			<path class="st0" d="M34.9,42.7h1c0.4,0,0.7-0.4,0.7-0.8v-1.2c0-0.4-0.3-0.8-0.7-0.8h-1c-0.4,0-0.7,0.4-0.7,0.8v1.2
				C34.2,42.3,34.5,42.7,34.9,42.7z"/>
			<path class="st0" d="M38.3,28h1c0.4,0,0.7-0.4,0.7-0.8V26c0-0.4-0.3-0.8-0.7-0.8h-1c-0.4,0-0.7,0.4-0.7,0.8v1.2
				C37.7,27.6,38,28,38.3,28z"/>
			<path class="st0" d="M38.3,32.9h1c0.4,0,0.7-0.4,0.7-0.8v-1.2c0-0.4-0.3-0.8-0.7-0.8h-1c-0.4,0-0.7,0.4-0.7,0.8v1.2
				C37.7,32.5,38,32.9,38.3,32.9z"/>
			<path class="st0" d="M38.3,37.8h1c0.4,0,0.7-0.4,0.7-0.8v-1.2c0-0.4-0.3-0.8-0.7-0.8h-1c-0.4,0-0.7,0.4-0.7,0.8V37
				C37.7,37.4,38,37.8,38.3,37.8z"/>
			<path class="st0" d="M38.3,42.7h1c0.4,0,0.7-0.4,0.7-0.8v-1.2c0-0.4-0.3-0.8-0.7-0.8h-1c-0.4,0-0.7,0.4-0.7,0.8v1.2
				C37.7,42.3,38,42.7,38.3,42.7z"/>
			<path class="st0" d="M44.7,28h1c0.4,0,0.7-0.4,0.7-0.8V26c0-0.4-0.3-0.8-0.7-0.8h-1c-0.4,0-0.7,0.4-0.7,0.8v1.2
				C44,27.6,44.3,28,44.7,28z"/>
			<path class="st0" d="M44.7,23.1h1c0.4,0,0.7-0.4,0.7-0.8v-1.2c0-0.4-0.3-0.8-0.7-0.8h-1c-0.4,0-0.7,0.4-0.7,0.8v1.2
				C44,22.8,44.3,23.1,44.7,23.1z"/>
			<path class="st0" d="M44.7,18.2h1c0.4,0,0.7-0.4,0.7-0.8v-1.2c0-0.4-0.3-0.8-0.7-0.8h-1c-0.4,0-0.7,0.4-0.7,0.8v1.2
				C44,17.9,44.3,18.2,44.7,18.2z"/>
			<path class="st0" d="M44.7,32.9h1c0.4,0,0.7-0.4,0.7-0.8v-1.2c0-0.4-0.3-0.8-0.7-0.8h-1c-0.4,0-0.7,0.4-0.7,0.8v1.2
				C44,32.5,44.3,32.9,44.7,32.9z"/>
			<path class="st0" d="M44.7,37.8h1c0.4,0,0.7-0.4,0.7-0.8v-1.2c0-0.4-0.3-0.8-0.7-0.8h-1c-0.4,0-0.7,0.4-0.7,0.8V37
				C44,37.4,44.3,37.8,44.7,37.8z"/>
			<path class="st0" d="M44.7,42.7h1c0.4,0,0.7-0.4,0.7-0.8v-1.2c0-0.4-0.3-0.8-0.7-0.8h-1c-0.4,0-0.7,0.4-0.7,0.8v1.2
				C44,42.3,44.3,42.7,44.7,42.7z"/>
			<path class="st0" d="M48.1,28h1c0.4,0,0.7-0.4,0.7-0.8V26c0-0.4-0.3-0.8-0.7-0.8h-1c-0.4,0-0.7,0.4-0.7,0.8v1.2
				C47.5,27.6,47.8,28,48.1,28z"/>
			<path class="st0" d="M48.1,23.1h1c0.4,0,0.7-0.4,0.7-0.8v-1.2c0-0.4-0.3-0.8-0.7-0.8h-1c-0.4,0-0.7,0.4-0.7,0.8v1.2
				C47.5,22.8,47.8,23.1,48.1,23.1z"/>
			<path class="st0" d="M48.1,18.2h1c0.4,0,0.7-0.4,0.7-0.8v-1.2c0-0.4-0.3-0.8-0.7-0.8h-1c-0.4,0-0.7,0.4-0.7,0.8v1.2
				C47.5,17.9,47.8,18.2,48.1,18.2z"/>
			<path class="st0" d="M48.1,32.9h1c0.4,0,0.7-0.4,0.7-0.8v-1.2c0-0.4-0.3-0.8-0.7-0.8h-1c-0.4,0-0.7,0.4-0.7,0.8v1.2
				C47.5,32.5,47.8,32.9,48.1,32.9z"/>
			<path class="st0" d="M48.1,37.8h1c0.4,0,0.7-0.4,0.7-0.8v-1.2c0-0.4-0.3-0.8-0.7-0.8h-1c-0.4,0-0.7,0.4-0.7,0.8V37
				C47.5,37.4,47.8,37.8,48.1,37.8z"/>
			<path class="st0" d="M48.1,42.7h1c0.4,0,0.7-0.4,0.7-0.8v-1.2c0-0.4-0.3-0.8-0.7-0.8h-1c-0.4,0-0.7,0.4-0.7,0.8v1.2
				C47.5,42.3,47.8,42.7,48.1,42.7z"/>
			<path class="st0" d="M51.6,28h1c0.4,0,0.7-0.4,0.7-0.8V26c0-0.4-0.3-0.8-0.7-0.8h-1c-0.4,0-0.7,0.4-0.7,0.8v1.2
				C51,27.6,51.3,28,51.6,28z"/>
			<path class="st0" d="M51.6,23.1h1c0.4,0,0.7-0.4,0.7-0.8v-1.2c0-0.4-0.3-0.8-0.7-0.8h-1c-0.4,0-0.7,0.4-0.7,0.8v1.2
				C51,22.8,51.3,23.1,51.6,23.1z"/>
			<path class="st0" d="M51.6,18.2h1c0.4,0,0.7-0.4,0.7-0.8v-1.2c0-0.4-0.3-0.8-0.7-0.8h-1c-0.4,0-0.7,0.4-0.7,0.8v1.2
				C51,17.9,51.3,18.2,51.6,18.2z"/>
			<path class="st0" d="M51.6,32.9h1c0.4,0,0.7-0.4,0.7-0.8v-1.2c0-0.4-0.3-0.8-0.7-0.8h-1c-0.4,0-0.7,0.4-0.7,0.8v1.2
				C51,32.5,51.3,32.9,51.6,32.9z"/>
			<path class="st0" d="M51.6,37.8h1c0.4,0,0.7-0.4,0.7-0.8v-1.2c0-0.4-0.3-0.8-0.7-0.8h-1c-0.4,0-0.7,0.4-0.7,0.8V37
				C51,37.4,51.3,37.8,51.6,37.8z"/>
			<path class="st0" d="M51.6,42.7h1c0.4,0,0.7-0.4,0.7-0.8v-1.2c0-0.4-0.3-0.8-0.7-0.8h-1c-0.4,0-0.7,0.4-0.7,0.8v1.2
				C51,42.3,51.3,42.7,51.6,42.7z"/>
			<path class="st0" d="M32.7,48c-0.4,0-0.7,0.4-0.7,0.8c0,0.4,0.3,0.8,0.7,0.8h0c0.4,0,0.7-0.4,0.7-0.8C33.4,48.3,33.1,48,32.7,48
				L32.7,48z"/>
			<path class="st0" d="M46,48c-0.4,0-0.7,0.4-0.7,0.8c0,0.4,0.3,0.8,0.7,0.8h0c0.4,0,0.7-0.4,0.7-0.8C46.6,48.3,46.4,48,46,48
				L46,48z"/>
			<path class="st0" d="M25.7,51.2L25.7,51.2c-0.4,0-0.7,0.4-0.7,0.8s0.3,0.8,0.7,0.8h0c0.4,0,0.7-0.4,0.7-0.8
				C26.3,51.6,26,51.2,25.7,51.2z"/>
			<path class="st0" d="M58.3,51.2L58.3,51.2c-0.4,0-0.7,0.4-0.7,0.8s0.3,0.8,0.7,0.8h0c0.4,0,0.7-0.4,0.7-0.8
				C59,51.6,58.7,51.2,58.3,51.2z"/>
			<path class="st0" d="M56.4,51.2h-0.5V12c0-0.4-0.3-0.8-0.7-0.8H42c-0.4,0-0.7,0.4-0.7,0.8v9.9H28.7c-0.4,0-0.7,0.4-0.7,0.8v28.5
				h-0.5c-0.4,0-0.7,0.4-0.7,0.8s0.3,0.8,0.7,0.8h1.1h6.6h4H42h6.6h4h2.7h0h0h1.1c0.4,0,0.7-0.4,0.7-0.8
				C57.1,51.6,56.8,51.2,56.4,51.2z M38.7,51.2H36V48h2.7V51.2z M41.3,51.2H40v-4.1c0-0.4-0.3-0.8-0.7-0.8h-4
				c-0.4,0-0.7,0.4-0.7,0.8v4.1h-5.3v-1.6h1.4c0.4,0,0.7-0.4,0.7-0.8c0-0.4-0.3-0.8-0.7-0.8h-1.4V23.5h12V51.2z M52,51.2h-2.7V48H52
				V51.2z M54.6,51.2h-1.3v-4.1c0-0.4-0.3-0.8-0.7-0.8h-4c-0.4,0-0.7,0.4-0.7,0.8v4.1h-5.3v-1.6h1.4c0.4,0,0.7-0.4,0.7-0.8
				c0-0.4-0.3-0.8-0.7-0.8h-1.4V22.7v-9.9h12V51.2z"/>
		</g>
	</g>
</g>
</svg>
