<?xml version="1.0" encoding="utf-8"?>
<!-- Generator: Adobe Illustrator 22.1.0, SVG Export Plug-In . SVG Version: 6.00 Build 0)  -->
<svg version="1.1" id="Layer_1" xmlns="http://www.w3.org/2000/svg" xmlns:xlink="http://www.w3.org/1999/xlink" x="0px" y="0px"
	 viewBox="0 0 84 64" style="enable-background:new 0 0 84 64;" xml:space="preserve">
<style type="text/css">
	.st0{fill:none;stroke:#CE1B0E;stroke-miterlimit:10;}
	.st1{fill:#CE1B0E;}
</style>
<g>
	<path class="st0" d="M6,2h72c2.2,0,4,1.8,4,4v52c0,2.2-1.8,4-4,4H6c-2.2,0-4-1.8-4-4V6C2,3.8,3.8,2,6,2z"/>
</g>
<g id="Symbols_1_">
	<g id="Multi-Family--Residence" transform="translate(-50.000000, -31.000000)">
		<g id="duplex-house">
			<g transform="translate(50.000000, 31.000000)">
				<path id="Shape_9_" class="st1" d="M40.1,45.1c0.1,0,0.3-0.1,0.4-0.2c0.1-0.1,0.2-0.2,0.2-0.4c0-0.1-0.1-0.3-0.2-0.4
					c-0.1-0.1-0.2-0.2-0.4-0.2c-0.1,0-0.3,0.1-0.4,0.2c-0.1,0.1-0.2,0.2-0.2,0.4c0,0.1,0.1,0.3,0.2,0.4C39.8,45.1,40,45.1,40.1,45.1
					z"/>
				<path id="Shape_8_" class="st1" d="M34.5,38.7h-5.4c-0.4,0-0.8,0.3-0.8,0.8v7.6c0,0.4,0.3,0.8,0.8,0.8h5.4
					c0.4,0,0.8-0.3,0.8-0.8v-7.6C35.3,39.1,35,38.7,34.5,38.7z M33.8,40.2v2.3h-3.9v-2.3H33.8z M29.9,46.3V44h3.9v2.3H29.9z"/>
				<path id="Shape_7_" class="st1" d="M49.5,47.8h5.4c0.4,0,0.8-0.3,0.8-0.8v-7.6c0-0.4-0.3-0.8-0.8-0.8h-5.4
					c-0.4,0-0.8,0.3-0.8,0.8v7.6C48.7,47.5,49,47.8,49.5,47.8z M50.2,46.3V44h3.9v2.3H50.2z M54.1,40.2v2.3h-3.9v-2.3H54.1z"/>
				<path id="Shape_3_" class="st1" d="M34.5,26.9h-5.4c-0.4,0-0.8,0.3-0.8,0.8v7.6c0,0.4,0.3,0.8,0.8,0.8h5.4
					c0.4,0,0.8-0.3,0.8-0.8v-7.6C35.3,27.3,35,26.9,34.5,26.9z M33.8,28.5v2.3h-3.9v-2.3H33.8z M29.9,34.5v-2.3h3.9v2.3H29.9z"/>
				<path id="Shape_4_" class="st1" d="M38.2,36h7.6c0.4,0,0.8-0.3,0.8-0.8v-7.6c0-0.4-0.3-0.8-0.8-0.8h-7.6c-0.4,0-0.8,0.3-0.8,0.8
					v7.6C37.5,35.7,37.8,36,38.2,36z M39,34.5v-2.3h6v2.3H39z M45,28.5v2.3h-6v-2.3H45z"/>
				<path id="Shape_5_" class="st1" d="M49.5,36h5.4c0.4,0,0.8-0.3,0.8-0.8v-7.6c0-0.4-0.3-0.8-0.8-0.8h-5.4c-0.4,0-0.8,0.3-0.8,0.8
					v7.6C48.7,35.7,49,36,49.5,36z M50.2,34.5v-2.3h3.9v2.3H50.2z M54.1,28.5v2.3h-3.9v-2.3H54.1z"/>
				<path id="Shape_6_" class="st1" d="M60.2,50.6h-0.8V25.7h0.7c0,0,0,0,0,0c0.4,0,0.8-0.3,0.8-0.8c0-0.1,0-0.2-0.1-0.3l-3-8.1
					c-0.1-0.3-0.4-0.5-0.7-0.5h-1.5v-2.3c0-0.4-0.3-0.8-0.8-0.8h-4.6c-0.4,0-0.8,0.3-0.8,0.8V16H26.8c-0.3,0-0.6,0.2-0.7,0.5l-3,8.2
					C23,25,23,25.2,23.2,25.4s0.4,0.3,0.6,0.3h0.7v24.9h-0.8c-0.4,0-0.8,0.3-0.8,0.8c0,0.4,0.3,0.8,0.8,0.8h36.5
					c0.4,0,0.8-0.3,0.8-0.8C61,50.9,60.7,50.6,60.2,50.6z M51.1,14.5h3.1V16h-3.1V14.5z M51.1,14.5h3.1V16h-3.1V14.5z M27.3,17.5
					h29.3l2.5,6.7H24.9L27.3,17.5z M27.3,17.5h29.3l2.5,6.7H24.9L27.3,17.5z M26.1,25.7h31.9v24.9H46.5V39.3c0-0.4-0.3-0.8-0.8-0.8
					h-7.5c-0.4,0-0.8,0.3-0.8,0.8v11.3H26.1V25.7z M45,50.6h-6V40.1h6V50.6z"/>
			</g>
		</g>
	</g>
</g>
</svg>
