<?xml version="1.0" encoding="utf-8"?>
<!-- Generator: Adobe Illustrator 22.1.0, SVG Export Plug-In . SVG Version: 6.00 Build 0)  -->
<svg version="1.1" id="Layer_1" xmlns="http://www.w3.org/2000/svg" xmlns:xlink="http://www.w3.org/1999/xlink" x="0px" y="0px"
	 viewBox="0 0 84 64" style="enable-background:new 0 0 84 64;" xml:space="preserve">
<style type="text/css">
	.st0{fill:none;stroke:#CE1B0E;stroke-miterlimit:10;}
	.st1{fill:none;stroke:#CE1B0E;stroke-width:2;}
	.st2{fill:#CE1B0E;}
</style>
<g>
	<path class="st0" d="M6,2h72c2.2,0,4,1.8,4,4v52c0,2.2-1.8,4-4,4H6c-2.2,0-4-1.8-4-4V6C2,3.8,3.8,2,6,2z"/>
</g>
<g id="Symbols">
	<g id="Single-Family-residence" transform="translate(-45.000000, -31.000000)">
		<g id="Group">
			<g transform="translate(45.000000, 31.000000)">
				<g id="Home">
					<path id="Shape" class="st1" d="M26.7,50c0,0,0,1,0.9,1c1.2,0,10.9,0,10.9,0l0-8.9c0,0-0.2-1.5,1.3-1.5h4.5
						c1.7,0,1.6,1.5,1.6,1.5l0,8.9c0,0,9.2,0,10.6,0c1.2,0,1.1-1.2,1.1-1.2V33.4l-15-13.3L26.7,33.4V50z"/>
					<path id="Shape_1_" class="st2" d="M21,32.4c0,0,1.3,2.5,4.3,0l17.6-15l16.5,14.9c3.4,2.5,4.7,0,4.7,0L42.9,13L21,32.4z"/>
					<polygon id="Shape_2_" class="st2" points="59.3,17.4 54.9,17.4 54.9,22.5 59.3,26.1 					"/>
					<path id="Shape-Copy" class="st2" d="M34.3,38.5h4.3c0.2,0,0.4-0.3,0.4-0.7v-7.4c0-0.4-0.2-0.7-0.4-0.7h-4.3
						c-0.2,0-0.4,0.3-0.4,0.7v7.4C33.9,38.2,34.1,38.5,34.3,38.5z M34.8,37v-2.2h3.4V37H34.8z M38.2,31.1v2.2h-3.4v-2.2H38.2z"/>
					<path id="Shape-Copy-2" class="st2" d="M46,38.5h4.3c0.2,0,0.4-0.3,0.4-0.7v-7.4c0-0.4-0.2-0.7-0.4-0.7H46
						c-0.2,0-0.4,0.3-0.4,0.7v7.4C45.6,38.2,45.8,38.5,46,38.5z M46.4,37v-2.2h3.4V37H46.4z M49.9,31.1v2.2h-3.4v-2.2H49.9z"/>
				</g>
			</g>
		</g>
	</g>
</g>
</svg>
