<?xml version="1.0" encoding="utf-8"?>
<!-- Generator: Adobe Illustrator 22.1.0, SVG Export Plug-In . SVG Version: 6.00 Build 0)  -->
<svg version="1.1" id="Layer_1" xmlns="http://www.w3.org/2000/svg" xmlns:xlink="http://www.w3.org/1999/xlink" x="0px" y="0px"
	 viewBox="0 0 84 64" style="enable-background:new 0 0 84 64;" xml:space="preserve">
<style type="text/css">
	.st0{fill:none;stroke:#CE1B0E;stroke-miterlimit:10;}
	.st1{fill:#CE1B0E;}
</style>
<g>
	<path class="st0" d="M6,2h72c2.2,0,4,1.8,4,4v52c0,2.2-1.8,4-4,4H6c-2.2,0-4-1.8-4-4V6C2,3.8,3.8,2,6,2z"/>
</g>
<g>
	<g>
		<polygon class="st1" points="42,24.6 29.1,34.5 29.1,47.8 39.5,47.8 39.5,38.1 45,38.1 45,47.8 54.9,47.8 54.9,34.5 		"/>
	</g>
</g>
<g>
	<g>
		<polygon class="st1" points="55.4,26.8 55.4,20 50,20 50,22.6 42,16.5 23.3,30.9 25.9,34.2 42,21.8 58.1,34.2 60.7,30.9 		"/>
	</g>
</g>
</svg>
