<?xml version="1.0" encoding="utf-8"?>
<!-- Generator: Adobe Illustrator 22.1.0, SVG Export Plug-In . SVG Version: 6.00 Build 0)  -->
<svg version="1.1" id="Layer_1" xmlns="http://www.w3.org/2000/svg" xmlns:xlink="http://www.w3.org/1999/xlink" x="0px" y="0px"
	 viewBox="0 0 84 64" style="enable-background:new 0 0 84 64;" xml:space="preserve">
<style type="text/css">
	.st0{fill:none;stroke:#CE1B0E;stroke-miterlimit:10;}
	.st1{fill:#CE1B0E;}
</style>
<g>
	<path class="st0" d="M6,2h72c2.2,0,4,1.8,4,4v52c0,2.2-1.8,4-4,4H6c-2.2,0-4-1.8-4-4V6C2,3.8,3.8,2,6,2z"/>
</g>
<g>
	<g>
		<path class="st1" d="M54.1,18.9h3.2v25.5h-3.2V18.9z M47.7,19.8l-0.4,0.1c-0.6,0.2-1.2-0.1-1.4-0.5c-0.1-0.2-0.1-0.5,0-0.7
			c0.1-0.3,0.4-0.5,0.7-0.6l5-1.6l0.6,4.5c0,0.2,0,0.5-0.2,0.7c-0.2,0.2-0.5,0.4-0.8,0.4c0,0-0.1,0-0.1,0c-0.6,0-1.1-0.4-1.1-0.8
			l-0.1-0.7c-5.8,8-19.2,16.6-19.7,17c-0.2,0.1-0.4,0.2-0.7,0.2c-0.3,0-0.7-0.1-0.9-0.3c-0.2-0.2-0.3-0.5-0.3-0.7
			c0-0.3,0.2-0.5,0.4-0.7C28.8,36,42,27.4,47.7,19.8z M51.5,24.5v19.9h-3.2V24.5H51.5z M45.8,30.4v14h-3.2v-14H45.8z M40,36.6v7.8
			h-3.2v-7.8H40z M33.9,39.6v4.8h-3.2v-4.8H33.9z M58.3,47.5H25.7v-2.4h32.6L58.3,47.5L58.3,47.5z"/>
	</g>
</g>
</svg>
