<?xml version="1.0" encoding="utf-8"?>
<!-- Generator: Adobe Illustrator 22.1.0, SVG Export Plug-In . SVG Version: 6.00 Build 0)  -->
<svg version="1.1" id="Layer_1" xmlns="http://www.w3.org/2000/svg" xmlns:xlink="http://www.w3.org/1999/xlink" x="0px" y="0px"
	 viewBox="0 0 84 64" style="enable-background:new 0 0 84 64;" xml:space="preserve">
<style type="text/css">
	.st0{fill:none;stroke:#CE1B0E;stroke-miterlimit:10;}
	.st1{fill:#CE1B0E;}
</style>
<g>
	<path class="st0" d="M6,2h72c2.2,0,4,1.8,4,4v52c0,2.2-1.8,4-4,4H6c-2.2,0-4-1.8-4-4V6C2,3.8,3.8,2,6,2z"/>
</g>
<g>
	<g>
		<path class="st1" d="M30.3,17.1v1.8h1.8v7.4c-1,0.4-1.8,1.4-1.8,2.5v2.7h5.4v-2.7c0-1.2-0.8-2.2-1.8-2.5v-7.4h1.8v5.1l8.1,4.1
			l8.1-4.1v-5.1h3.6v-1.8C50,17.1,30.5,17.1,30.3,17.1z"/>
	</g>
</g>
<g>
	<g>
		<rect x="26.6" y="35.1" class="st1" width="3.7" height="10.8"/>
	</g>
</g>
<g>
	<g>
		<path class="st1" d="M52.5,37.8l-4.2,2.7h-9.9v-1.8c0.3,0,7.8,0,8.1,0v-3.6c-0.2,0-5.3,0-5.6,0c-0.5,0-0.7-0.4-1-0.6
			c-1.2-1-2.7-1.6-4.2-1.6c-1.1,0-2.4,0.3-3.6,1.1v11.9h15.7l9.6-7.2C56.3,37.2,54.1,36.7,52.5,37.8z"/>
	</g>
</g>
</svg>
