<?xml version="1.0" encoding="utf-8"?>
<!-- Generator: Adobe Illustrator 22.1.0, SVG Export Plug-In . SVG Version: 6.00 Build 0)  -->
<svg version="1.1" id="Layer_1" xmlns="http://www.w3.org/2000/svg" xmlns:xlink="http://www.w3.org/1999/xlink" x="0px" y="0px"
	 viewBox="0 0 84 64" style="enable-background:new 0 0 84 64;" xml:space="preserve">
<style type="text/css">
	.st0{fill:none;stroke:#CE1B0E;stroke-miterlimit:10;}
	.st1{fill:#CE1B0E;}
</style>
<g>
	<path class="st0" d="M6,2h72c2.2,0,4,1.8,4,4v52c0,2.2-1.8,4-4,4H6c-2.2,0-4-1.8-4-4V6C2,3.8,3.8,2,6,2z"/>
</g>
<g>
	<path class="st1" d="M39.8,39c0,4.5,3.6,8.1,8.1,8.1S56,43.5,56,39s-3.6-8.1-8.1-8.1C43.5,30.9,39.8,34.5,39.8,39z M44.8,35.8
		c0.2-0.2,0.5-0.3,0.8-0.3c0.3,0,0.6,0.1,0.8,0.3c0.2,0.2,0.3,0.5,0.3,0.8s-0.1,0.6-0.3,0.8c-0.2,0.2-0.5,0.3-0.8,0.3
		c-0.3,0-0.6-0.1-0.8-0.3c-0.2-0.2-0.3-0.5-0.3-0.8C44.5,36.3,44.6,36,44.8,35.8z M51.1,42.1c-0.2,0.2-0.5,0.3-0.8,0.3
		s-0.6-0.1-0.8-0.3c-0.2-0.2-0.3-0.5-0.3-0.8c0-0.3,0.1-0.6,0.3-0.8c0.2-0.2,0.5-0.3,0.8-0.3s0.6,0.1,0.8,0.3
		c0.2,0.2,0.3,0.5,0.3,0.8C51.4,41.7,51.3,41.9,51.1,42.1z M51.1,35.9c0.4,0.4,0.4,1.1,0,1.5l-4.8,4.8c-0.2,0.2-0.5,0.3-0.8,0.3
		s-0.6-0.1-0.8-0.3c-0.4-0.4-0.4-1.1,0-1.5l4.8-4.8C50,35.4,50.6,35.4,51.1,35.9z"/>
	<path class="st1" d="M37.7,39c0-5.6,4.6-10.2,10.2-10.2c0.2,0,0.4,0,0.6,0V17.6c0-0.6-0.5-1.1-1.1-1.1H29.1c-0.6,0-1.1,0.5-1.1,1.1
		v28.5c0,0.6,0.5,1.1,1.1,1.1h12.8C39.3,45.4,37.7,42.4,37.7,39z M34.1,22.3h7.6c0.6,0,1.1,0.5,1.1,1.1c0,0.6-0.5,1.1-1.1,1.1h-7.6
		c-0.6,0-1.1-0.5-1.1-1.1S33.5,22.3,34.1,22.3z M34.1,28h7.6c0.6,0,1.1,0.5,1.1,1.1s-0.5,1.1-1.1,1.1h-7.6c-0.6,0-1.1-0.5-1.1-1.1
		C33,28.4,33.5,28,34.1,28z M36,35.8h-1.9c-0.6,0-1.1-0.5-1.1-1.1s0.5-1.1,1.1-1.1H36c0.6,0,1.1,0.5,1.1,1.1
		C37.1,35.3,36.6,35.8,36,35.8z"/>
</g>
</svg>
